<?xml version="1.0" standalone="no"?>
<!DOCTYPE svg PUBLIC "-//W3C//DTD SVG 20010904//EN"
 "http://www.w3.org/TR/2001/REC-SVG-20010904/DTD/svg10.dtd">
<svg version="1.0" xmlns="http://www.w3.org/2000/svg"
 width="100.000000pt" height="100.000000pt" viewBox="0 0 100.000000 100.000000"
 preserveAspectRatio="xMidYMid meet">
<metadata>
Created by potrace 1.16, written by Peter Selinger 2001-2019
</metadata>
<g transform="translate(0.000000,100.000000) scale(0.003906,-0.003906)"
fill="#000000" stroke="none">
<path d="M2400 25410 c-477 -74 -917 -274 -1285 -581 -89 -75 -275 -262 -351
-354 -240 -289 -427 -660 -519 -1035 -19 -74 -42 -187 -52 -250 -17 -110 -18
-540 -18 -10390 0 -9909 1 -10279 18 -10385 98 -589 347 -1079 752 -1479 412
-408 880 -645 1470 -743 106 -17 476 -18 10385 -18 9923 0 10279 1 10390 18
539 86 1001 306 1387 659 423 387 689 854 815 1433 l33 150 2 9198 3 9197 -24
59 c-64 157 -197 276 -365 325 -50 15 -1000 16 -10930 16 l-10876 -1 -66 -22
c-230 -78 -369 -271 -369 -512 0 -146 41 -252 140 -359 63 -68 136 -118 218
-149 l57 -22 10578 -3 10577 -2 0 -8725 c0 -9661 6 -8833 -65 -9072 -105 -351
-331 -658 -632 -858 -233 -156 -496 -244 -792 -265 -183 -14 -19986 -13
-20161 0 -238 19 -399 60 -595 154 -254 122 -467 304 -620 531 -118 176 -219
436 -251 645 -21 143 -21 20317 0 20460 55 364 277 760 546 975 214 171 456
285 712 337 l113 23 10225 0 10225 0 104 -23 c145 -33 257 -74 389 -143 126
-65 202 -118 309 -211 227 -199 407 -517 469 -827 8 -42 19 -161 24 -266 5
-104 14 -210 20 -234 42 -174 220 -345 398 -382 33 -6 100 -9 158 -7 90 4 110
8 175 40 137 65 234 164 286 291 25 60 25 61 21 356 -5 321 -11 375 -79 626
-120 441 -400 892 -744 1198 -356 316 -744 511 -1219 615 l-121 27 -10375 1
c-9944 2 -10380 1 -10490 -16z"/>
<path d="M3224 23326 c-100 -19 -199 -73 -271 -149 -109 -114 -153 -223 -153
-377 0 -194 88 -351 255 -455 121 -76 110 -75 800 -75 676 0 674 0 790 65 198
111 308 341 265 557 -16 82 -67 190 -119 253 -53 65 -164 138 -249 167 -66 22
-75 22 -657 25 -455 1 -606 -1 -661 -11z"/>
<path d="M6395 23329 c-35 -5 -94 -25 -142 -49 -339 -167 -402 -620 -122 -875
31 -27 78 -62 105 -77 106 -57 113 -58 779 -58 516 0 620 2 670 15 164 43 306
179 365 349 93 272 -67 584 -349 678 -65 22 -77 22 -656 24 -324 1 -617 -2
-650 -7z"/>
<path d="M21634 23325 c-361 -80 -535 -502 -334 -815 68 -106 203 -202 320
-229 28 -7 273 -11 655 -11 517 0 620 2 670 15 318 83 483 443 339 742 -61
128 -171 227 -312 282 l-67 26 -605 2 c-478 1 -618 -1 -666 -12z"/>
<path d="M10425 18051 c-321 -58 -585 -190 -818 -411 -249 -236 -406 -527
-474 -883 -17 -85 -18 -184 -18 -1322 0 -1351 -3 -1282 61 -1502 143 -494 532
-898 1019 -1056 130 -43 237 -64 395 -77 200 -18 347 24 466 133 118 108 175
234 175 392 0 184 -84 345 -231 444 -84 55 -159 81 -270 92 -140 14 -192 27
-272 66 -88 45 -172 127 -216 214 -64 128 -63 93 -60 1327 l3 1117 26 67 c53
135 135 231 250 289 125 63 -35 59 2339 59 2401 0 2227 5 2354 -63 116 -61
201 -168 252 -317 18 -53 19 -103 19 -1185 0 -1068 -1 -1133 -18 -1190 -54
-175 -191 -308 -373 -362 -54 -16 -152 -18 -1209 -23 -836 -4 -1159 -9 -1183
-17 -180 -64 -311 -204 -357 -380 -13 -49 -15 -244 -15 -1405 l0 -1348 -2377
0 c-1549 0 -2401 -4 -2443 -10 -148 -23 -308 -136 -378 -267 -65 -123 -62 -61
-62 -1318 0 -1260 -4 -1182 63 -1310 68 -128 230 -242 377 -265 41 -6 471 -10
1151 -10 677 0 1107 -4 1140 -10 30 -5 91 -28 135 -50 133 -65 241 -200 273
-340 7 -30 11 -434 11 -1170 0 -909 -3 -1135 -14 -1175 -22 -83 -73 -172 -134
-233 -66 -66 -121 -101 -212 -134 l-65 -23 -2190 0 c-2097 0 -2193 1 -2250 18
-167 52 -286 163 -348 325 l-22 57 -3 1132 c-3 1248 -5 1198 59 1325 81 160
272 277 453 278 65 0 174 27 244 60 86 40 196 151 239 240 146 306 -23 669
-353 755 -75 19 -230 19 -359 0 -364 -55 -673 -216 -924 -481 -207 -218 -341
-482 -404 -788 l-22 -111 0 -1250 0 -1250 23 -105 c70 -320 214 -592 427 -806
133 -133 252 -220 410 -299 147 -73 238 -105 404 -143 l116 -26 2220 -4 c1520
-2 2255 0 2330 8 299 29 578 132 801 297 121 90 286 258 362 371 119 175 210
385 252 584 37 176 42 360 37 1498 -5 1173 -3 1142 -60 1350 -64 229 -164 418
-323 611 -135 162 -298 289 -499 388 -149 74 -243 108 -395 143 -93 21 -109
22 -987 25 l-893 4 0 519 0 520 4725 0 4725 0 0 -520 0 -519 -897 -4 c-884 -3
-900 -4 -993 -25 -355 -82 -648 -252 -865 -501 -199 -229 -317 -471 -377 -774
-22 -111 -22 -124 -26 -1232 -4 -1164 0 -1316 37 -1490 100 -465 402 -861 821
-1074 143 -74 249 -111 415 -149 l120 -26 2215 -4 c1545 -2 2250 0 2329 8 225
21 393 70 594 172 423 215 713 598 825 1088 l26 115 4 1185 c2 815 0 1215 -8
1280 -42 366 -184 674 -428 932 -293 307 -663 478 -1077 495 -157 7 -217 -4
-324 -58 -129 -64 -228 -188 -266 -330 -20 -73 -19 -222 1 -290 37 -125 112
-229 213 -294 90 -58 164 -81 297 -94 61 -5 133 -17 160 -27 179 -59 310 -206
349 -389 21 -102 22 -2205 1 -2307 -22 -102 -62 -174 -141 -254 -74 -75 -132
-110 -230 -141 -57 -17 -153 -18 -2250 -18 l-2190 0 -60 22 c-169 61 -276 165
-332 323 l-23 65 0 1146 c0 1264 -4 1186 63 1314 64 121 205 225 345 254 37 8
394 11 1150 11 1202 0 1170 -1 1300 60 130 61 251 215 281 358 15 74 15 2259
0 2334 -18 88 -74 192 -137 257 -64 64 -123 102 -221 140 l-66 26 -2412 3
-2413 2 0 1040 0 1040 783 0 c430 0 835 5 899 10 335 28 629 141 876 339 343
274 549 657 592 1099 12 127 12 2257 0 2384 -39 401 -205 741 -500 1021 -208
198 -459 330 -759 399 l-96 23 -2305 2 c-2174 1 -2311 0 -2405 -16z"/>
</g>
</svg>
